<svg xmlns="http://www.w3.org/2000/svg" style="display: none;">
  <symbol id="icon-Вода" viewBox="0 0 20 20" fill="none">
        <path d="M6.73509 6.25C7.25492 8.25923 5.64432 10 3.50094 10C1.35756 10 -0.259409 8.28375 0.266787 6.25C0.590202 5 2.20728 3.125 3.50094 0C4.7946 3.125 6.41167 5 6.73509 6.25Z" fill="white"/>
  </symbol>
  <symbol id="icon-Топливо" viewBox="0 0 20 20" fill="none">
        <path d="M6.83334 0.999595V1.01451C6.83334 1.56653 5.68065 2.01603 3.50001 2.01603C1.20968 2.01603 0.166672 1.56653 0.166672 1.01451V0.988938C0.166672 0.669238 0.525811 0.41561 1.23549 0.236578C1.84194 0.0831219 2.64624 0 3.50001 0C4.35162 0 5.15592 0.0831219 5.76452 0.236578C6.4742 0.41561 6.83334 0.669238 6.83334 0.988938V0.999595ZM3.02689 0.988938C3.02689 0.899422 2.74302 0.829088 2.39463 0.829088C2.04409 0.829088 1.76022 0.899422 1.76022 0.988938C1.76022 1.07632 2.04409 1.14879 2.39463 1.14879C2.74302 1.14879 3.02689 1.07632 3.02689 0.988938ZM6.63119 3.0753V1.79224C6.44409 1.93291 6.16022 2.05226 5.77958 2.14817C5.16667 2.30376 4.35807 2.38688 3.50001 2.38688C2.64194 2.38688 1.83334 2.30163 1.22044 2.14817C0.83979 2.05226 0.555919 1.93504 0.368822 1.79224V3.0753C0.233338 3.18826 0.166672 3.31401 0.166672 3.45255V3.47599C0.166672 4.02801 1.20968 4.47558 3.50001 4.47558C5.68065 4.47558 6.83334 4.02801 6.83334 3.47599V3.45255C6.83334 3.31401 6.76667 3.18826 6.63119 3.0753ZM6.63119 5.82259V4.25606C6.44409 4.39673 6.16022 4.51608 5.77958 4.61199C5.16667 4.76545 4.35807 4.8507 3.50001 4.8507C2.64194 4.8507 1.83334 4.76545 1.22044 4.61199C0.83979 4.51608 0.555919 4.39673 0.368822 4.25606V5.82259C0.233338 5.93555 0.166672 6.0613 0.166672 6.19983V6.21902C0.166672 6.77103 1.20968 7.21861 3.50001 7.21861C5.68065 7.21861 6.83334 6.77103 6.83334 6.21902V6.19983C6.83334 6.05917 6.76667 5.93342 6.63119 5.82259ZM6.82259 8.92155C6.79893 8.81711 6.73657 8.7212 6.63119 8.63382V7.00335C6.44409 7.14401 6.16022 7.26337 5.77958 7.35928C5.16667 7.51273 4.35807 7.59799 3.50001 7.59799C2.64194 7.59799 1.83334 7.51273 1.22044 7.35928C0.83979 7.26337 0.555919 7.14401 0.368822 7.00335V8.63382C0.263446 8.7212 0.20108 8.81711 0.177424 8.92155C0.170973 8.94712 0.166672 8.97483 0.166672 9.0004V9.01106C0.166672 9.13255 0.216134 9.24338 0.317209 9.34355C0.682801 9.72719 1.71076 10 3.50001 10C4.79463 10 5.72796 9.84228 6.27205 9.59718C6.64409 9.43733 6.83334 9.24338 6.83334 9.01106V9.0004C6.83334 8.97483 6.82904 8.94712 6.82259 8.92155Z" fill="white"/>
  </symbol>
  <symbol id="icon-Электроэнергия" viewBox="0 0 20 20" fill="none">
        <path d="M4.83333 4.0625H2.5V0L0.166664 5.9375H2.5V10L4.83333 4.0625Z" fill="white"/>
  </symbol>
  <symbol id="icon-Провизия" viewBox="0 0 20 20" fill="none">
        <path d="M10.8073 0L10.8067 9.6088C10.9811 9.89187 11.1615 10.0007 11.3128 10C11.463 9.9993 11.6415 9.88915 11.8125 9.61455L11.3455 4.70675L11.34 4.64697L11.3774 4.59932C11.9141 3.9201 12.1016 2.74662 11.9485 1.75407C11.872 1.25777 11.7117 0.808575 11.4873 0.491025C11.2992 0.224725 11.0747 0.05485 10.8074 0H10.8073ZM1.36933 0.00010004L1.36893 1.67827L1.05059 1.67787V0.000199985H0.688026L0.688076 1.67795H0.369282V0.000199985H3.05026e-09V2.5809C-2.53423e-05 2.86632 0.157902 3.0246 0.40654 3.12245L0.509442 3.163L0.507161 3.27225C0.45647 5.3865 0.406362 7.50072 0.356052 9.61495C0.529414 9.89475 0.707491 10.0007 0.855761 10C1.00403 9.9993 1.18196 9.89057 1.35311 9.6142C1.29444 7.50052 1.23576 5.3868 1.17719 3.2731L1.17415 3.1631L1.27738 3.12295C1.53905 3.0203 1.70924 2.8461 1.70924 2.58105V0.00010004H1.36933ZM6.00214 0.975C4.9199 0.975 3.88198 1.39906 3.11672 2.15389C2.35145 2.90873 1.92153 3.9325 1.92153 5C1.92153 6.06749 2.35145 7.09127 3.11672 7.8461C3.88198 8.60094 4.9199 9.025 6.00214 9.025C7.08438 9.025 8.1223 8.60094 8.88756 7.8461C9.65283 7.09127 10.0827 6.06749 10.0827 5C10.0827 3.9325 9.65283 2.90873 8.88756 2.15389C8.1223 1.39906 7.08438 0.975 6.00214 0.975Z" fill="white"/>

  </symbol>
  <symbol id="icon-Кислород" viewBox="0 0 20 20" fill="none">
        <path d="M2.44537 7.06793L1.33333 5.72117V2.6801L2.44537 1.33333H4.23698L5.34902 2.6801V5.72117L4.23698 7.06793H2.44537ZM2.31409 3.10585V5.29542L2.87011 5.96446H3.81225L4.36827 5.29542V3.10585L3.81225 2.43681H2.87011L2.31409 3.10585Z" fill="white"/>
  <path d="M8.66667 8.66667H6.42715V7.3286L6.82872 6.89416H7.91759L8.01026 6.81596V6.4684L7.91759 6.36414H7.17623L7.08356 6.4684V6.64218H6.42715V6.14692L6.91367 5.62559H8.18015L8.66667 6.14692V7.15482L8.25738 7.54581H7.16851L7.08356 7.65008V7.92812H8.66667V8.66667Z" fill="white"/>
  <path d="M10 0V10H0V0H10ZM0.666667 9.33333H9.33333V0.666667H0.666667V9.33333Z" fill="white"/>
  </symbol>
  <symbol id="icon-Углекислый газ" viewBox="0 0 20 20" fill="none">
        <path d="M12.8333 0V10H0.166668V0H12.8333ZM0.833335 9.33333H12.1667V0.666667H0.833335V9.33333Z" fill="white"/>
  <path d="M4.0884 7.06793H2.4295L1.5 5.72117V2.6801L2.4295 1.33333H4.0884L4.92108 2.53239L4.22396 3.1406L3.73338 2.43681H2.78452L2.31977 3.10585V5.30411L2.78452 5.96446H3.73338L4.19814 5.29542L4.90172 5.88626L4.0884 7.06793Z" fill="white"/>
  <path d="M6.2999 7.06793L5.3704 5.72117V2.6801L6.2999 1.33333H7.79743L8.72693 2.6801V5.72117L7.79743 7.06793H6.2999ZM6.19017 3.10585V5.29542L6.65492 5.96446H7.44241L7.90716 5.29542V3.10585L7.44241 2.43681H6.65492L6.19017 3.10585Z" fill="white"/>
  <path d="M11.5 8.66667H9.62809V7.3286L9.96374 6.89416H10.8739L10.9513 6.81596V6.4684L10.8739 6.36414H10.2542L10.1768 6.4684V6.64218H9.62809V6.14692L10.0347 5.62559H11.0933L11.5 6.14692V7.15482L11.1579 7.54581H10.2478L10.1768 7.65008V7.92812H11.5V8.66667Z" fill="white"/>
  </symbol>
  <symbol id="icon-Мусор" viewBox="0 0 20 20" fill="none">
        <path d="M2.45185 0V1.30208H0.333332V2.08333H7.66667V1.30208H5.54815V0H2.45185ZM2.94074 0.46875H5.05926V1.30208H2.94074V0.46875ZM0.795006 2.55208L1.6127 10H6.38735L7.20499 2.55208H0.795006ZM2.48814 2.90052L2.50552 3.13437L2.94009 8.96771L2.95755 9.20146L2.46986 9.23487L2.45248 9.00102L2.01791 3.16768L2.00044 2.93393L2.48814 2.90052ZM5.51186 2.90052L5.99953 2.93396L5.98206 3.16773L5.5475 9.00107L5.53011 9.23492L5.04242 9.20148L5.05988 8.96771L5.49445 3.13437L5.51183 2.90052H5.51186ZM3.75555 2.91667H4.24444V9.21875H3.75555V2.91667Z" fill="white"/>

  </symbol>
  <symbol id="icon-Материалы" viewBox="0 0 20 20" fill="none">
        <path d="M9.83132 0L1.5703 4.3908L5.34421 6.38307L13.5804 2.03326L9.83135 0H9.83132ZM11.314 1.54573L12.2017 1.99645L5.35829 5.59183L3.03885 4.35735L3.91786 3.89359L5.35833 4.66116L11.3141 1.54577L11.314 1.54573ZM13.9641 2.56184L5.59789 6.9808L5.39735 9.86485L14.8333 4.85567L13.9641 2.56184ZM1.16596 4.90973L0.166666 7.57324L4.73944 10L4.95292 6.90843L1.16592 4.90977L1.16596 4.90973Z" fill="white"/>

  </symbol>

</svg>