<svg width="15" height="15" viewBox="0 0 15 15" fill="none" xmlns="http://www.w3.org/2000/svg">
<path d="M3.66805 10.6019L2 8.58175V4.02014L3.66805 2H6.35548L8.02353 4.02014V8.58175L6.35548 10.6019H3.66805ZM3.47113 4.65877V7.94313L4.30516 8.94668H5.71837L6.5524 7.94313V4.65877L5.71837 3.65521H4.30516L3.47113 4.65877Z" fill="white"/>
<path d="M13 13H9.64072V10.9929L10.2431 10.3412H11.8764L12.0154 10.2239V9.70261L11.8764 9.54621H10.7643L10.6253 9.70261V9.96327H9.64072V9.22038L10.3705 8.43839H12.2702L13 9.22038V10.7322L12.3861 11.3187H10.7528L10.6253 11.4751V11.8922H13V13Z" fill="white"/>
<path d="M15 0V15H0V0H15ZM1 14H14V1H1V14Z" fill="white"/>
</svg>
