<svg width="186" height="60" viewBox="0 0 186 60" fill="none" xmlns="http://www.w3.org/2000/svg">
<path d="M14 29V31L24 24L48 31L48 29L42 27.25L40.9412 26.9412L35.3684 25.3158L32.8421 24.5789L24 22L14 29Z" fill="white"/>
<path d="M42 26L38 22L32.8421 24.5789L35.3684 25.3158L38 24L40.9412 26.9412L42 27.25V26Z" fill="white"/>
<path fill-rule="evenodd" clip-rule="evenodd" d="M0 30.0013L29.9874 0L60 30.0013L29.9911 60L0 30.0013ZM29.9807 4.99316L4.99121 29.9943L29.9838 54.9932L54.9912 29.9943L29.9807 4.99316Z" fill="white"/>
<path fill-rule="evenodd" clip-rule="evenodd" d="M4.99121 29.9943L29.9807 4.99316L54.9912 29.9943L29.9838 54.9932L4.99121 29.9943ZM14 31V29L24 22L32.8421 24.5789L38 22L42 26V27.25L48 29L48 31L24 24L14 31Z" fill="#464646"/>
<path d="M40.9412 26.9412L38 24L35.3684 25.3158L40.9412 26.9412Z" fill="#464646"/>
<g filter="url(#filter0_d_132_4202)">
<path d="M78.66 36.5H71.4V23.3H78.66L81 25.5V28.52L79.6 29.7V29.9L81 31.1V34.3L78.66 36.5ZM73 24.9V29.02H78.12L79.4 27.92V26.18L78.04 24.9H73ZM73 30.58V34.9H78.04L79.4 33.62V31.7L78.12 30.58H73ZM88.3122 36.5H84.5922V26.5H86.1922V29.9H88.3322L90.5922 31.44V34.84L88.3122 36.5ZM93.3922 36.5H91.8322V26.5H93.3922V36.5ZM86.1922 31.5V34.9H87.9122L89.0322 34.08V32.22L87.9122 31.5H86.1922ZM104.764 36.5H99.7244L97.3844 34.1V28.9L99.7244 26.5H104.764L106.684 28.46L105.504 29.56L104.084 28.1H100.424L98.9844 29.56V33.44L100.424 34.9H104.064L105.504 33.44L106.684 34.52L104.764 36.5ZM117.237 36.5H112.717L110.377 34.1V28.9L112.717 26.5H117.237L119.577 28.9V34.1L117.237 36.5ZM111.977 33.44L113.417 34.9H116.537L117.977 33.44V29.56L116.537 28.1H113.417L111.977 29.56V33.44ZM128.789 36.5H127.149L127.189 28.04H122.969V26.5H132.969V28.04H128.749L128.789 36.5ZM140.281 36.5H136.561V26.5H138.161V29.9H140.301L142.561 31.44V34.84L140.281 36.5ZM145.361 36.5H143.801V26.5H145.361V36.5ZM138.161 31.5V34.9H139.881L141.001 34.08V32.22L139.881 31.5H138.161ZM171.845 36.5H162.245V34.9H166.985V27.9H166.905L164.905 30.06H162.245V28.46H164.205L166.945 25.46V23.3H168.585V34.9H171.845V36.5Z" fill="white"/>
</g>
<defs>
<filter id="filter0_d_132_4202" x="69.4" y="21.3" width="106.445" height="19.2" filterUnits="userSpaceOnUse" color-interpolation-filters="sRGB">
<feFlood flood-opacity="0" result="BackgroundImageFix"/>
<feColorMatrix in="SourceAlpha" type="matrix" values="0 0 0 0 0 0 0 0 0 0 0 0 0 0 0 0 0 0 127 0" result="hardAlpha"/>
<feOffset dx="1" dy="1"/>
<feGaussianBlur stdDeviation="1.5"/>
<feComposite in2="hardAlpha" operator="out"/>
<feColorMatrix type="matrix" values="0 0 0 0 0.0578939 0 0 0 0 0.0578939 0 0 0 0 0.0578939 0 0 0 1 0"/>
<feBlend mode="normal" in2="BackgroundImageFix" result="effect1_dropShadow_132_4202"/>
<feBlend mode="normal" in="SourceGraphic" in2="effect1_dropShadow_132_4202" result="shape"/>
</filter>
</defs>
</svg>
