<svg width="186" height="60" viewBox="0 0 186 60" fill="none" xmlns="http://www.w3.org/2000/svg">
<path d="M46 31V29L36 36L12 29L12 31L18 32.75L19.0588 33.0588L24.6316 34.6842L27.1579 35.4211L36 38L46 31Z" fill="white"/>
<path d="M18 34L22 38L27.1579 35.4211L24.6316 34.6842L22 36L19.0588 33.0588L18 32.75V34Z" fill="white"/>
<path fill-rule="evenodd" clip-rule="evenodd" d="M55.0088 30.0057L30.0193 55.0068L5.00878 30.0057L30.0162 5.00684L55.0088 30.0057ZM46 29V31L36 38L27.1579 35.4211L22 38L18 34V32.75L12 31L12 29L36 36L46 29Z" fill="#464646"/>
<path d="M19.0588 33.0588L22 36L24.6316 34.6842L19.0588 33.0588Z" fill="#464646"/>
<path fill-rule="evenodd" clip-rule="evenodd" d="M60 29.9987L30.0126 60L0 29.9987L30.0089 0L60 29.9987ZM30.0193 55.0068L55.0088 30.0057L30.0162 5.00684L5.00878 30.0057L30.0193 55.0068Z" fill="white"/>
<g filter="url(#filter0_d_17_1449)">
<path d="M79 28.88V23.3H80.6V36.5H79V30.42H73.04V36.5H71.4V23.3H73.04V28.88H79ZM86.0722 36.5H84.5922V26.5H86.1922V33.46H86.3522L91.6322 26.5H93.3922V36.5H91.7922V29.06H91.6322L86.0722 36.5ZM104.184 36.5H99.7244L97.3844 34.54V33.12H98.9844V33.82L100.304 34.92H103.664L104.984 34.04V32.86L103.864 32.1H100.244V30.7H103.864L104.984 30.04V28.96L103.664 28.08H100.504L99.1844 29.18V29.88H97.5844V28.46L99.9244 26.5H104.184L106.584 28.16V30.7L105.284 31.36V31.44L106.584 32.1V34.84L104.184 36.5ZM112.057 36.5H110.577V26.5H112.177V33.46H112.337L117.617 26.5H119.377V36.5H117.777V29.06H117.617L112.057 36.5ZM125.169 36.5H123.569V26.5H125.169V30.6H130.769V26.5H132.369V36.5H130.769V32.16H125.169V36.5ZM140.281 36.5H136.561V26.5H138.161V29.9H140.301L142.561 31.44V34.84L140.281 36.5ZM145.361 36.5H143.801V26.5H145.361V36.5ZM138.161 31.5V34.9H139.881L141.001 34.08V32.22L139.881 31.5H138.161ZM161.945 27.92V25.8L164.585 23.3H169.365L171.945 25.8V29.58L169.405 31.56H165.245L163.645 32.8V34.9H171.885V36.5H162.045V32.02L164.585 30.04H168.765L170.345 28.8V26.5L168.765 24.9H165.185L163.545 26.5V27.92H161.945Z" fill="white"/>
</g>
<defs>
<filter id="filter0_d_17_1449" x="69.4" y="21.3" width="106.545" height="19.2" filterUnits="userSpaceOnUse" color-interpolation-filters="sRGB">
<feFlood flood-opacity="0" result="BackgroundImageFix"/>
<feColorMatrix in="SourceAlpha" type="matrix" values="0 0 0 0 0 0 0 0 0 0 0 0 0 0 0 0 0 0 127 0" result="hardAlpha"/>
<feOffset dx="1" dy="1"/>
<feGaussianBlur stdDeviation="1.5"/>
<feComposite in2="hardAlpha" operator="out"/>
<feColorMatrix type="matrix" values="0 0 0 0 0.0578939 0 0 0 0 0.0578939 0 0 0 0 0.0578939 0 0 0 1 0"/>
<feBlend mode="normal" in2="BackgroundImageFix" result="effect1_dropShadow_17_1449"/>
<feBlend mode="normal" in="SourceGraphic" in2="effect1_dropShadow_17_1449" result="shape"/>
</filter>
</defs>
</svg>
