<svg width="189" height="60" viewBox="0 0 189 60" fill="none" xmlns="http://www.w3.org/2000/svg">
<path fill-rule="evenodd" clip-rule="evenodd" d="M0 30.0013L29.9874 0L60 30.0013L29.9911 60L0 30.0013ZM29.9807 4.99316L4.99121 29.9943L29.9838 54.9932L54.9912 29.9943L29.9807 4.99316Z" fill="white"/>
<path d="M14 31V29H48L48 31H14Z" fill="white"/>
<path fill-rule="evenodd" clip-rule="evenodd" d="M4.99121 29.9943L29.9807 4.99316L54.9912 29.9943L29.9838 54.9932L4.99121 29.9943ZM14 29V31H48L48 29H14Z" fill="#464646"/>
<g filter="url(#filter0_d_17_1330)">
<path d="M73 36.5H71.4V23.3H78.86L81.2 25.7V28.9L78.86 31.3H73V36.5ZM73 24.9V29.7H78.18L79.6 28.24V26.38L78.18 24.9H73ZM90.4122 36.5H86.7322L84.3922 34.1V28.9L86.7322 26.5H90.4922L91.7522 27.46H91.8322L91.9522 26.5H93.3922V36.5H91.9522V35.38H91.8722L90.4122 36.5ZM85.9922 33.44L87.4322 34.9H89.9522L91.7922 33.54V29.46L89.8922 28.1H87.4322L85.9922 29.56V33.44ZM104.184 36.5H97.5844V26.5H104.424L106.384 27.88V30.5L105.224 31.32V31.38L106.584 32.2V34.84L104.184 36.5ZM99.1844 28.06V30.58H103.824L104.784 29.86V28.74L103.824 28.06H99.1844ZM99.1844 32.2V34.9H103.744L104.984 34.04V33.08L103.744 32.2H99.1844ZM112.177 36.5H110.577V26.5H112.177V30.6H117.777V26.5H119.377V36.5H117.777V32.16H112.177V36.5ZM125.049 36.5H123.569V26.5H125.169V33.46H125.329L130.609 26.5H132.369V36.5H130.769V29.06H130.609L125.049 36.5ZM138.161 36.5H136.561V26.5H138.161V30.6H143.761V26.5H145.361V36.5H143.761V32.16H138.161V36.5ZM153.273 36.5H149.553V26.5H151.153V29.9H153.293L155.553 31.44V34.84L153.273 36.5ZM158.353 36.5H156.793V26.5H158.353V36.5ZM151.153 31.5V34.9H152.873L153.993 34.08V32.22L152.873 31.5H151.153ZM174.938 27.92V25.8L177.578 23.3H182.358L184.938 25.8V29.58L182.398 31.56H178.238L176.638 32.8V34.9H184.878V36.5H175.038V32.02L177.578 30.04H181.758L183.338 28.8V26.5L181.758 24.9H178.178L176.538 26.5V27.92H174.938Z" fill="white"/>
</g>
<defs>
<filter id="filter0_d_17_1330" x="69.4" y="21.3" width="119.537" height="19.2" filterUnits="userSpaceOnUse" color-interpolation-filters="sRGB">
<feFlood flood-opacity="0" result="BackgroundImageFix"/>
<feColorMatrix in="SourceAlpha" type="matrix" values="0 0 0 0 0 0 0 0 0 0 0 0 0 0 0 0 0 0 127 0" result="hardAlpha"/>
<feOffset dx="1" dy="1"/>
<feGaussianBlur stdDeviation="1.5"/>
<feComposite in2="hardAlpha" operator="out"/>
<feColorMatrix type="matrix" values="0 0 0 0 0.0578939 0 0 0 0 0.0578939 0 0 0 0 0.0578939 0 0 0 1 0"/>
<feBlend mode="normal" in2="BackgroundImageFix" result="effect1_dropShadow_17_1330"/>
<feBlend mode="normal" in="SourceGraphic" in2="effect1_dropShadow_17_1330" result="shape"/>
</filter>
</defs>
</svg>
