<svg width="19" height="15" viewBox="0 0 19 15" fill="none" xmlns="http://www.w3.org/2000/svg">
<path d="M19 0V15H0V0H19ZM1 14H18V1H1V14Z" fill="currentColor"/>
<path d="M5.8826 10.6019H3.39425L2 8.58175V4.02014L3.39425 2H5.8826L7.13162 3.79858L6.08593 4.7109L5.35008 3.65521H3.92678L3.22965 4.65877V7.95616L3.92678 8.94668H5.35008L6.0472 7.94313L7.10257 8.82938L5.8826 10.6019Z" fill="currentColor"/>
<path d="M9.19985 10.6019L7.8056 8.58175V4.02014L9.19985 2H11.4461L12.8404 4.02014V8.58175L11.4461 10.6019H9.19985ZM9.03525 4.65877V7.94313L9.73238 8.94668H10.9136L11.6107 7.94313V4.65877L10.9136 3.65521H9.73238L9.03525 4.65877Z" fill="currentColor"/>
<path d="M17 13H14.1921V10.9929L14.6956 10.3412H16.0608L16.177 10.2239V9.70261L16.0608 9.54621H15.1313L15.0151 9.70261V9.96327H14.1921V9.22038L14.8021 8.43839H16.39L17 9.22038V10.7322L16.4868 11.3187H15.1216L15.0151 11.4751V11.8922H17V13Z" fill="currentColor"/>
</svg>
